<svg xmlns="http://www.w3.org/2000/svg" width="87.265" height="87" viewBox="0 0 87.265 87">
  <g id="Group_310" data-name="Group 310" transform="translate(3.5 3.5)">
    <g id="Group_243" data-name="Group 243">
      <path id="Path_1471" data-name="Path 1471" d="M26.036,72.867C19.382,79.151,13.3,83,2,83c4.006-4.444,9.094-10.444,11.221-19.764A33.484,33.484,0,0,1,2,38.556C2,18.92,19.935,3,42.06,3,62.491,3,79.348,16.573,81.812,34.111" transform="translate(-2 -3)" fill="none" stroke="#000" stroke-linecap="round" stroke-linejoin="round" stroke-width="7"/>
      <path id="Path_1472" data-name="Path 1472" d="M24.644,32.695C16.556,32.695,10,27.838,10,21.846S16.556,11,24.644,11s14.644,4.857,14.644,10.846a9.585,9.585,0,0,1-4.1,7.529,12.774,12.774,0,0,0,4.1,6.031,12.836,12.836,0,0,1-9.255-3.471,19.218,19.218,0,0,1-5.389.757Z" transform="translate(40.713 44.594)" fill="none" stroke="#000" stroke-linecap="round" stroke-linejoin="round" stroke-width="7"/>
    </g>
  </g>
</svg>
