<svg xmlns="http://www.w3.org/2000/svg" width="87" height="87" viewBox="0 0 87 87">
  <g id="Group_311" data-name="Group 311" transform="translate(3.5 3.5)">
    <path id="Path_1476" data-name="Path 1476" d="M83,20.778C83,30.6,65.089,38.556,43,38.556S3,30.6,3,20.778m80,0C83,10.956,65.089,3,43,3S3,10.956,3,20.778m80,0V43M3,20.778V43m80,0c0,9.822-17.911,17.778-40,17.778S3,52.822,3,43m80,0V65.222C83,75.044,65.089,83,43,83S3,75.044,3,65.222V43" transform="translate(-3 -3)" fill="none" stroke="#000" stroke-linecap="round" stroke-linejoin="round" stroke-width="7"/>
  </g>
</svg>
