<svg id="Group_281" data-name="Group 281" xmlns="http://www.w3.org/2000/svg" xmlns:xlink="http://www.w3.org/1999/xlink" width="615.715" height="631.721" viewBox="0 0 615.715 631.721">
  <defs>
    <clipPath id="clip-path">
      <rect id="Rectangle_1299" data-name="Rectangle 1299" width="615.715" height="631.721" fill="none"/>
    </clipPath>
  </defs>
  <path id="Path_1505" data-name="Path 1505" d="M203.132,223.591H110.346l46.393,85.842Z" transform="translate(122.538 248.296)" fill="#00ffe2"/>
  <path id="Path_1506" data-name="Path 1506" d="M293.308,0,263.35,55.432h59.917Z" transform="translate(292.448 0)" fill="#00ffe2"/>
  <g id="Group_280" data-name="Group 280">
    <g id="Group_279" data-name="Group 279" clip-path="url(#clip-path)">
      <path id="Path_1507" data-name="Path 1507" d="M252.446,211.266A112.64,112.64,0,1,1,139.805,98.625,112.641,112.641,0,0,1,252.446,211.266" transform="translate(30.168 109.522)" fill="#00ffe2"/>
      <path id="Path_1508" data-name="Path 1508" d="M297.316,241.387a65.722,65.722,0,1,1-65.721-65.721,65.721,65.721,0,0,1,65.721,65.721" transform="translate(184.199 195.076)" fill="#00ffe2"/>
      <line id="Line_26" data-name="Line 26" x1="106.512" y2="169.54" transform="translate(21.785 292.082)" fill="none" stroke="#f05" stroke-linecap="round" stroke-miterlimit="10" stroke-width="2"/>
      <line id="Line_27" data-name="Line 27" x1="106.512" y2="169.54" transform="translate(52.973 292.082)" fill="none" stroke="#f05" stroke-linecap="round" stroke-miterlimit="10" stroke-width="2"/>
      <line id="Line_28" data-name="Line 28" x1="106.512" y2="169.54" transform="translate(465.48 173.79)" fill="none" stroke="#f05" stroke-linecap="round" stroke-miterlimit="10" stroke-width="2"/>
      <line id="Line_29" data-name="Line 29" x1="106.512" y2="169.54" transform="translate(496.669 173.79)" fill="none" stroke="#f05" stroke-linecap="round" stroke-miterlimit="10" stroke-width="2"/>
      <path id="Path_1509" data-name="Path 1509" d="M59.94,303.644H202.759L131.349,171.512Z" transform="translate(66.563 190.463)" fill="#f05"/>
      <path id="Path_1510" data-name="Path 1510" d="M168.3,337.652H25.483A1.8,1.8,0,0,1,23.9,335L95.311,202.87a1.869,1.869,0,0,1,3.162,0L169.883,335a1.8,1.8,0,0,1-1.583,2.651M28.5,334.058H165.286L96.891,207.5Z" transform="translate(26.302 224.317)" fill="#f05"/>
      <path id="Path_1511" data-name="Path 1511" d="M93.152,302.519a1.8,1.8,0,0,1-1.2-3.138l73.074-65.288a1.8,1.8,0,1,1,2.393,2.682L94.349,302.063a1.8,1.8,0,0,1-1.2.456" transform="translate(101.45 259.451)" fill="#f05"/>
      <path id="Path_1512" data-name="Path 1512" d="M59.318,239.744a1.8,1.8,0,0,1-1.192-3.143L131.4,171.634a1.8,1.8,0,0,1,2.385,2.691L60.51,239.29a1.794,1.794,0,0,1-1.192.454" transform="translate(63.876 190.096)" fill="#f05"/>
      <path id="Path_1513" data-name="Path 1513" d="M25.483,304.967a1.8,1.8,0,0,1-1.19-3.145l79.1-69.942a1.8,1.8,0,0,1,2.381,2.693l-79.1,69.942a1.793,1.793,0,0,1-1.19.452" transform="translate(26.302 257.002)" fill="#f05"/>
      <path id="Path_1514" data-name="Path 1514" d="M350.131,41.739H165.872L258,212.21Z" transform="translate(184.2 46.351)" fill="#00ffe2"/>
      <path id="Path_1515" data-name="Path 1515" d="M182.41,21.546H90.281l46.066,85.234Z" transform="translate(100.256 23.927)" fill="#f05"/>
      <rect id="Rectangle_1295" data-name="Rectangle 1295" width="150.113" height="150.113" transform="translate(236.592 209.829)" fill="#f05"/>
      <path id="Path_1516" data-name="Path 1516" d="M295,209.489H152.133V66.622H295ZM298.622,63H148.509V213.111H298.622Z" transform="translate(164.918 69.959)" fill="#f05"/>
      <path id="Path_1517" data-name="Path 1517" d="M113.919,141.679a1.811,1.811,0,0,1-1.281-3.092L187.7,63.53a1.812,1.812,0,0,1,2.562,2.562L115.2,141.15a1.811,1.811,0,0,1-1.281.53" transform="translate(124.495 69.961)" fill="#f05"/>
      <path id="Path_1518" data-name="Path 1518" d="M183.29,143.731A1.812,1.812,0,0,1,182,140.644l76.721-77.109a1.811,1.811,0,1,1,2.568,2.554L184.573,143.2a1.8,1.8,0,0,1-1.283.534" transform="translate(201.531 69.96)" fill="#f05"/>
      <path id="Path_1519" data-name="Path 1519" d="M184.158,211.961a1.811,1.811,0,0,1-1.281-3.092L257.966,133.8a1.812,1.812,0,0,1,2.562,2.562l-75.089,75.072a1.811,1.811,0,0,1-1.281.53" transform="translate(202.495 147.992)" fill="#f05"/>
      <path id="Path_1520" data-name="Path 1520" d="M140.575,184.68l22.2,16.884,22.209-16.884,22.207,16.884L229.4,184.68l22.2,16.884,22.2-16.884,22.209,16.884,22.215-16.884,22.207,16.884,22.223-16.884,22.223,16.884" transform="translate(156.108 205.086)" fill="none" stroke="#f05" stroke-linecap="round" stroke-miterlimit="10" stroke-width="2"/>
      <path id="Path_1521" data-name="Path 1521" d="M17.689,77.639l22.2,16.884L62.1,77.639,84.309,94.523l22.207-16.884,22.2,16.884,22.2-16.884,22.209,16.884,22.215-16.884,22.207,16.884,22.223-16.884L262,94.523" transform="translate(19.643 86.218)" fill="none" stroke="#f05" stroke-linecap="round" stroke-miterlimit="10" stroke-width="2"/>
      <rect id="Rectangle_1296" data-name="Rectangle 1296" width="123.447" height="123.447" transform="translate(415.822 453.085)" fill="none" stroke="#f05" stroke-linecap="round" stroke-miterlimit="10" stroke-width="2"/>
      <rect id="Rectangle_1297" data-name="Rectangle 1297" width="132.687" height="24.676" transform="translate(0 75.752)" fill="#00ffe2"/>
      <rect id="Rectangle_1298" data-name="Rectangle 1298" width="24.676" height="132.687" transform="translate(496.67 499.034)" fill="#00ffe2"/>
      <path id="Path_1522" data-name="Path 1522" d="M35.862,116.737a12.77,12.77,0,1,1-12.771-12.771A12.77,12.77,0,0,1,35.862,116.737Z" transform="translate(11.464 115.453)" fill="none" stroke="#f05" stroke-linecap="round" stroke-miterlimit="10" stroke-width="2"/>
      <path id="Path_1523" data-name="Path 1523" d="M188.057,271.291a12.77,12.77,0,1,1-12.771-12.771A12.77,12.77,0,0,1,188.057,271.291Z" transform="translate(180.475 287.084)" fill="none" stroke="#f05" stroke-linecap="round" stroke-miterlimit="10" stroke-width="2"/>
      <path id="Path_1524" data-name="Path 1524" d="M324.93,162.082a39.571,39.571,0,1,1-39.57-39.57A39.569,39.569,0,0,1,324.93,162.082Z" transform="translate(272.947 136.049)" fill="none" stroke="#f05" stroke-linecap="round" stroke-miterlimit="10" stroke-width="2"/>
    </g>
  </g>
</svg>
