<svg xmlns="http://www.w3.org/2000/svg" xmlns:xlink="http://www.w3.org/1999/xlink" width="109" height="69.88" viewBox="0 0 109 69.88">
  <defs>
    <clipPath id="clip-path">
      <rect id="Rectangle_1275" data-name="Rectangle 1275" width="109" height="69.88"/>
    </clipPath>
  </defs>
  <g id="Group_271" data-name="Group 271" opacity="0.949">
    <g id="Group_231" data-name="Group 231" transform="translate(0 0)" clip-path="url(#clip-path)">
      <path id="Path_1460" data-name="Path 1460" d="M60.287,38.385a34.481,34.481,0,0,0,14.9,28.371,34.923,34.923,0,0,0,.226-56.9A34.486,34.486,0,0,0,60.287,38.385" transform="translate(-20.094 -3.284)"/>
      <path id="Path_1461" data-name="Path 1461" d="M35.382,35.1a39.264,39.264,0,0,1,15.5-31.249,34.939,34.939,0,1,0-.247,62.3A39.257,39.257,0,0,1,35.382,35.1" transform="translate(0 0)"/>
      <path id="Path_1462" data-name="Path 1462" d="M94.881,69.805A34.309,34.309,0,1,1,129.189,35.5,34.347,34.347,0,0,1,94.881,69.805M94.881,6a29.5,29.5,0,1,0,29.5,29.5A29.531,29.531,0,0,0,94.881,6" transform="translate(-20.189 -0.396)"/>
    </g>
  </g>
</svg>
