<svg xmlns="http://www.w3.org/2000/svg" xmlns:xlink="http://www.w3.org/1999/xlink" width="936" height="676" viewBox="0 0 936 676">
  <defs>
    <clipPath id="clip-path">
      <rect id="Rectangle_1306" data-name="Rectangle 1306" width="936" height="676" transform="translate(984 2330)" fill="#fff" stroke="#707070" stroke-width="1"/>
    </clipPath>
    <clipPath id="clip-path-2">
      <rect id="Rectangle_1275" data-name="Rectangle 1275" width="1954.854" height="1253.257" fill="#fff"/>
    </clipPath>
  </defs>
  <g id="Mask_Group_2" data-name="Mask Group 2" transform="translate(-984 -2330)" clip-path="url(#clip-path)">
    <g id="Group_270" data-name="Group 270" transform="translate(1001 2360.371)" opacity="0.104">
      <g id="Group_231" data-name="Group 231" transform="translate(0 0)" clip-path="url(#clip-path-2)">
        <path id="Path_1460" data-name="Path 1460" d="M60.287,521.542c0,210.7,105.949,397.035,267.281,508.819,160.352-113.493,265.141-300.305,265.141-511.7,0-209.613-103.019-395.05-261.087-508.807C167.981,121.291,60.287,309.059,60.287,521.542" transform="translate(660.548 107.967)" fill="#fff"/>
        <path id="Path_1461" data-name="Path 1461" d="M634.556,629.51c0-228.314,109.177-431.518,277.958-560.436A623.686,623.686,0,0,0,626.628,0C280.553,0,0,280.553,0,626.628s280.553,626.628,626.628,626.628a623.621,623.621,0,0,0,281.449-66.8C741.843,1057.37,634.556,855.791,634.556,629.51" transform="translate(0 0)" fill="#fff"/>
        <path id="Path_1462" data-name="Path 1462" d="M675.877,1231.8c-339.284,0-615.305-276.021-615.305-615.305S336.593,1.188,675.877,1.188s615.305,276.021,615.305,615.305S1015.161,1231.8,675.877,1231.8m0-1144.331c-291.708,0-529.026,237.317-529.026,529.025s237.317,529.014,529.026,529.014S1204.9,908.2,1204.9,616.493,967.586,87.468,675.877,87.468" transform="translate(663.671 13.017)" fill="#fff"/>
      </g>
    </g>
  </g>
</svg>
