<svg xmlns="http://www.w3.org/2000/svg" xmlns:xlink="http://www.w3.org/1999/xlink" width="80.764" height="51.778" viewBox="0 0 80.764 51.778">
  <defs>
    <clipPath id="clip-path">
      <rect id="Rectangle_1275" data-name="Rectangle 1275" width="80.764" height="51.778" fill="#fff"/>
    </clipPath>
  </defs>
  <g id="Group_232" data-name="Group 232" transform="translate(0 0)">
    <g id="Group_231" data-name="Group 231" transform="translate(0 0)" clip-path="url(#clip-path)">
      <path id="Path_1460" data-name="Path 1460" d="M60.287,30.994A25.549,25.549,0,0,0,71.33,52.016,25.877,25.877,0,0,0,71.5,9.854a25.553,25.553,0,0,0-11.21,21.14" transform="translate(-30.506 -4.986)" fill="#fff"/>
      <path id="Path_1461" data-name="Path 1461" d="M26.216,26.008A29.092,29.092,0,0,1,37.7,2.854a25.888,25.888,0,1,0-.183,46.164,29.087,29.087,0,0,1-11.3-23.01" transform="translate(0 0)" fill="#fff"/>
      <path id="Path_1462" data-name="Path 1462" d="M85.993,52.03a25.421,25.421,0,1,1,25.421-25.421A25.45,25.45,0,0,1,85.993,52.03m0-47.277a21.856,21.856,0,1,0,21.856,21.856A21.881,21.881,0,0,0,85.993,4.753" transform="translate(-30.65 -0.601)" fill="#fff"/>
    </g>
  </g>
</svg>
